# xmcd
#
# Track frame offsets:
#    150
#    24490
#    38627
#    56472
#    76800
#    96192
#    126765
#    147375
#    168515
#    190095
#    200915
#    219717
#    240720
#    265955
#    305745
#    321477
#
# Disc length: 4483 seconds
#
# Revision: 1
# Processed by: cddbd v1.5.1PL2 Copyright (c) Steve Scherf et al.
# Submitted via: dBpowerAMP V4.0
#
DISCID=ed118110
DTITLE=Stevie Ray Vaughan and Double Trouble - The Essential Stevie Ray V
DTITLE=aughan [CD2]
DYEAR=1900
DGENRE=Blues
TTITLE0=Say What!
TTITLE1=Look at Little Sister
TTITLE2=Change It
TTITLE3=Come On (Part III)
TTITLE4=Life without You
TTITLE5=Little Wing
TTITLE6=Willie The Wimp (Live)
TTITLE7=Superstition (Live)
TTITLE8=Leave My Girl Alone (Live)
TTITLE9=The House is Rockin'
TTITLE10=Crossfire
TTITLE11=Tightrope
TTITLE12=Wall of Denial
TTITLE13=Riviera Paradise
TTITLE14=Telephone Song (the Vaughan Bros.)
TTITLE15=Long Way From Home (the Vaughan Bros.)
EXTD=
EXTT0=
EXTT1=
EXTT2=
EXTT3=
EXTT4=
EXTT5=
EXTT6=
EXTT7=
EXTT8=
EXTT9=
EXTT10=
EXTT11=
EXTT12=
EXTT13=
EXTT14=
EXTT15=
PLAYORDER=
